<?xml version="1.0" encoding="UTF-8" standalone="no"?>
<!-- Created with Inkscape (http://www.inkscape.org/) -->

<svg
   width="3072"
   height="1536"
   viewBox="0 0 3072 1536"
   version="1.1"
   id="svg1"
   inkscape:version="1.3.2 (091e20ef0f, 2023-11-25)"
   sodipodi:docname="switch.svg"
   xmlns:inkscape="http://www.inkscape.org/namespaces/inkscape"
   xmlns:sodipodi="http://sodipodi.sourceforge.net/DTD/sodipodi-0.dtd"
   xmlns="http://www.w3.org/2000/svg"
   xmlns:svg="http://www.w3.org/2000/svg"
   xmlns:rdf="http://www.w3.org/1999/02/22-rdf-syntax-ns#"
   xmlns:cc="http://creativecommons.org/ns#"
   xmlns:dc="http://purl.org/dc/elements/1.1/">
  <title
     id="title1">© 2024 NinStar</title>
  <sodipodi:namedview
     id="namedview1"
     pagecolor="#505050"
     bordercolor="#ffffff"
     borderopacity="1"
     inkscape:showpageshadow="0"
     inkscape:pageopacity="0"
     inkscape:pagecheckerboard="1"
     inkscape:deskcolor="#505050"
     inkscape:document-units="px"
     inkscape:zoom="0.13208008"
     inkscape:cx="972.89464"
     inkscape:cy="1003.1793"
     inkscape:window-width="1366"
     inkscape:window-height="731"
     inkscape:window-x="1366"
     inkscape:window-y="0"
     inkscape:window-maximized="1"
     inkscape:current-layer="svg1" />
  <defs
     id="defs1" />
  <g
     id="g4-0-5-7-4-0-8-5"
     transform="matrix(2,0,0,2,-8414.377,-3620)"
     inkscape:label="default_alt">
    <rect
       style="display:inline;fill:#202225;fill-opacity:1;stroke-width:2;stroke-dashoffset:9.6;paint-order:markers stroke fill"
       id="rect1565-2-1-5-2-2-2-7-7-0-3-6-4-7-3"
       width="256"
       height="256"
       x="4207.1885"
       y="2322" />
    <g
       id="rect2247-4-9-3-5-8-4-6-2-09-9-5">
      <path
         id="path1-6-8-5-6-1-0-6"
         style="color:#000000;fill:#ffffff;stroke-dashoffset:9.6;-inkscape-stroke:none;paint-order:markers stroke fill"
         d="m 4284.1875,2384 c -11.4264,0 -21,9.5736 -21,21 v 90 c 0,11.4264 9.5736,21 21,21 h 102 c 11.4264,0 21,-9.5736 21,-21 v -90 c 0,-11.4264 -9.5736,-21 -21,-21 z m 0,12 h 102 c 4.9858,0 9,4.014 9,9 v 90 c 0,4.986 -4.0142,9 -9,9 h -102 c -4.986,0 -9,-4.014 -9,-9 v -90 c 0,-4.986 4.014,-9 9,-9 z m 28.9121,20.5625 c -4.2168,0 -7.6133,3.3945 -7.6133,7.6113 v 12.4356 c 0,4.2168 3.3965,7.6113 7.6133,7.6113 4.2167,0 7.6113,-3.3945 7.6113,-7.6113 v -12.4356 c 0,-4.2168 -3.3946,-7.6113 -7.6113,-7.6113 z m 42,0 c -4.2168,0 -7.6133,3.3945 -7.6133,7.6113 v 12.4356 c 0,4.2168 3.3965,7.6113 7.6133,7.6113 4.2167,0 7.6113,-3.3945 7.6113,-7.6113 v -12.4356 c 0,-4.2168 -3.3946,-7.6113 -7.6113,-7.6113 z m -42.4063,49.6133 -11.7871,2.2578 c 1.4006,7.3122 6.673,12.6738 12.7715,15.8086 6.0984,3.1348 13.2332,4.481 20.3418,4.4512 7.1086,-0.03 14.2133,-1.436 20.2637,-4.584 6.0504,-3.1481 11.28,-8.4778 12.5996,-15.7324 l -11.8047,-2.1465 c -0.5274,2.8991 -2.4978,5.2393 -6.3321,7.2343 -3.8341,1.9951 -9.2989,3.2055 -14.7773,3.2286 -5.4784,0.023 -10.9492,-1.1412 -14.8047,-3.1231 -3.8555,-1.9818 -5.8858,-4.3412 -6.4707,-7.3945 z" />
    </g>
  </g>
  <g
     id="g1906-5-9"
     transform="matrix(8,0,0,8,-128,-1664)"
     inkscape:export-xdpi="768"
     inkscape:export-ydpi="768"
     style="display:inline"
     inkscape:label="default">
    <rect
       style="opacity:1;fill:#4752c4;fill-opacity:1;stroke-dashoffset:9.6;paint-order:markers stroke fill"
       id="rect1565-7-9"
       width="128"
       height="128"
       x="16"
       y="208" />
    <path
       d="m 73.698942,307.22945 h 2.365104 v -10.59002 h -2.365104 z m -12.284418,-17.22643 2.788704,3.74181 h 1.094302 v -5.61271 h -1.129602 v 3.70651 l -2.753404,-3.67121 h -1.129602 v 5.61271 h 1.129602 z m 12.637419,-1.8709 h -4.765507 v 1.2002 h 1.800303 v 4.41251 h 1.200202 v -4.41251 h 1.765002 z m -7.307111,16.16742 -2.259203,-7.69541 h -1.870903 l -2.223904,7.66011 -2.047403,-7.66011 h -2.294503 l 3.000505,10.59002 h 2.541603 l 1.976803,-6.98942 1.976803,6.98942 h 2.541604 l 3.000504,-10.59002 h -2.294503 z m 15.920324,-23.01563 h 6.91881 c 6.354007,0 11.507814,-5.15381 11.507814,-11.50782 v -21.88603 c 0,-6.35401 -5.153807,-11.50782 -11.507814,-11.50782 h -6.95411 c -0.176501,0 -0.282401,0.1412 -0.282401,0.2824 v 44.30157 c 0,0.1765 0.1412,0.3177 0.317701,0.3177 z m 8.542612,-24.74534 c 2.506304,0 4.553705,2.04741 4.553705,4.55371 0,2.50631 -2.047401,4.55371 -4.553705,4.55371 -2.506303,0 -4.553706,-2.0474 -4.553706,-4.55371 0.0353,-2.5063 2.047403,-4.55371 4.553706,-4.55371 z m -35.158852,31.59355 h -1.235502 v 5.61271 h 1.235502 z m -9.389814,1.8709 2.788704,3.74181 h 1.094302 v -5.61271 h -1.129601 v 3.70651 l -2.753405,-3.67121 H 45.5295 v 5.61271 h 1.129602 z m 3.318205,10.80182 h -0.0706 c -1.306102,-0.21179 -2.400404,-0.42361 -2.506303,-1.1649 0,-0.1059 0,-0.353 0.176499,-0.60009 0.353001,-0.42361 1.164902,-0.6001 2.365104,-0.6001 1.376702,0 2.753404,0.52949 3.247605,0.7413 l 0.741301,-1.83561 c -0.5295,-0.2118 -2.223903,-0.8119 -4.094806,-0.8119 -2.294504,0 -4.730207,1.1296 -4.730207,3.17701 0,1.6591 1.164901,2.5416 4.200706,3.0711 2.153303,0.353 3.318205,0.56481 3.282905,1.4826 -0.0353,0.4942 -0.4236,1.3414 -2.824004,1.3414 -1.941503,0 -3.318205,-0.706 -3.777106,-0.9884 L 45,306.41756 c 0.5295,0.2824 2.329803,1.1296 4.624307,1.1296 3.353505,0 5.153807,-1.1649 5.153807,-3.3888 0.0353,-1.58851 -0.741301,-2.64751 -4.800807,-3.35352 z m 13.20222,-50.93798 c 0,2.3298 1.906202,4.23601 4.236006,4.23601 2.329804,0 4.236006,-1.90621 4.236006,-4.23601 0,-2.3298 -1.906202,-4.236 -4.236006,-4.236 -2.365103,0 -4.236006,1.8709 -4.236006,4.236 z m 19.344428,42.85426 h -3.212304 v -1.30609 h 2.965204 v -1.02371 h -2.965204 v -1.2002 h 3.212304 v -1.0237 h -4.377206 v 5.61271 h 4.377206 z m 26.263235,-4.7655 c -1.6591,0 -3.0005,1.34141 -3.0005,3.00052 0,1.65908 1.3414,3.00049 3.0005,3.00049 1.65911,0 3.00051,-1.34141 3.00051,-3.00049 -0.0353,-1.65911 -1.3767,-3.00052 -3.00051,-3.00052 z m 0,4.73021 c -0.9531,0 -1.7297,-0.77659 -1.7297,-1.72969 0,-0.95311 0.7766,-1.72972 1.7297,-1.72972 0.95311,0 1.72971,0.7766 1.72971,1.72972 0,0.9531 -0.7766,1.72969 -1.72971,1.72969 z m 0.353,8.11901 h -4.942 v -4.16541 h -2.1886 v 10.59002 h 2.1886 v -4.23601 h 4.942 v 4.23601 h 2.1886 v -10.59002 h -2.1886 z m 3.07111,5.33031 h 0.4589 v 1.0943 h 0.2471 v -1.0943 h 0.4236 v -0.2471 h -1.1296 z m 2.4357,-0.2824 -0.353,0.98841 -0.353,-0.98841 h -0.3883 v 1.34141 h 0.2471 v -1.02371 l 0.353,1.02371 h 0.24711 l 0.35299,-1.02371 v 1.02371 H 115 v -1.34141 z m -19.66213,-7.20121 c 1.200204,0 2.294508,0.6354 2.89461,1.65909 l 1.729698,-1.48259 c -1.058995,-1.55321 -2.788702,-2.50631 -4.694908,-2.50631 -3.106402,0 -5.648005,2.54161 -5.648005,5.64801 0,3.1064 2.541604,5.64801 5.648005,5.64801 1.906206,0 3.635913,-0.9178 4.694908,-2.50631 l -1.729698,-1.48259 c -0.600102,0.98839 -1.694406,1.65909 -2.89461,1.65909 -1.835599,0 -3.353502,-1.48259 -3.353502,-3.2829 0,-1.80031 1.482602,-3.3535 3.353502,-3.3535 z m -16.34392,0.2118 h 3.388803 v 8.33081 h 2.294505 v -8.33081 h 3.318205 v -2.25921 H 78.67625 v 2.25921 z m 13.55522,-5.11851 v -5.61271 h -1.129602 v 3.70651 l -2.753404,-3.67121 h -1.129603 v 5.61271 h 1.129603 v -3.74181 l 2.788703,3.74181 h 1.094302 z M 77.511348,236.38224 h -9.813415 c -6.354009,0 -11.507816,5.15381 -11.507816,11.50782 v 21.88603 c 0,6.35402 5.153807,11.50782 11.507816,11.50782 h 9.813415 c 0.1765,0 0.317701,-0.1412 0.317701,-0.3177 v -44.26627 c 0,-0.1765 -0.141201,-0.3177 -0.317701,-0.3177 z m -3.282905,41.30106 h -6.53051 c -2.118003,0 -4.094806,-0.8119 -5.577408,-2.3298 -1.482602,-1.4826 -2.329803,-3.4594 -2.329803,-5.57741 v -21.88603 c 0,-2.118 0.811901,-4.0948 2.329803,-5.57741 1.482602,-1.48259 3.459405,-2.3298 5.577408,-2.3298 h 6.53051 z m 25.027735,10.44882 h -2.329801 v 5.61271 h 2.329801 c 1.588502,0 2.894612,-1.27081 2.894612,-2.7887 0,-1.55321 -1.30611,-2.82401 -2.894612,-2.82401 z m 0.0706,4.4478 h -1.235497 v -3.2476 h 1.235497 c 0.882502,0 1.623802,0.7413 1.623802,1.62381 0,0.8825 -0.7413,1.62379 -1.623802,1.62379 z"
       fill="#ffffff"
       id="path1569-4-4"
       style="stroke-width:1.10742" />
  </g>
  <g
     id="g5-8-7-0-6"
     transform="matrix(2,0,0,2,-5659.403,-4794.79)"
     inkscape:label="nso_dark">
    <rect
       style="display:inline;fill:#202225;fill-opacity:1;stroke-width:2;stroke-dashoffset:9.6;paint-order:markers stroke fill"
       id="rect1565-2-1-5-26-0-8-1-9-3"
       width="256"
       height="256"
       x="3597.7012"
       y="2909.395" />
    <g
       id="g2179-1-6-4-7-1-9"
       transform="matrix(3.7657474,0,0,3.7657474,3006.8941,794.31064)">
      <path
         id="path2207-7-8-3-3-2-7-4"
         clip-path="url(#b)"
         style="fill:#ffffff;stroke-width:0.342874"
         d="m 184.05948,575.99992 c -3.96495,0 -7.17922,3.21428 -7.17922,7.17923 v 13.64116 c 0,3.96529 3.21427,7.17974 7.17922,7.17974 h 6.12014 c 0.11356,0 0.20585,-0.0923 0.2059,-0.2059 v -27.58884 c 0,-0.11353 -0.0924,-0.20574 -0.2059,-0.20539 z m 9.30935,0 c -0.10072,0 -0.18217,0.0818 -0.18205,0.18257 v 27.61217 c 0,0.11326 0.0913,0.20591 0.20487,0.20591 h 4.30951 c 3.96495,0 7.17922,-3.21445 7.17922,-7.17975 v -13.64167 c 0,-3.96495 -3.21427,-7.17923 -7.17922,-7.17923 h -5.2e-4 z m -9.30935,2.25771 h 4.06834 v 23.48575 h -4.06834 c -1.31488,0 -2.55064,-0.51183 -3.48017,-1.44134 -0.92631,-0.92118 -1.44535,-2.17484 -1.44135,-3.48122 v -13.64115 c 0,-1.31524 0.51129,-2.55134 1.44083,-3.48018 0.9211,-0.92627 2.17442,-1.44486 3.48069,-1.44186 z m -0.18775,3.50144 c -1.31917,0 -2.63837,0.88037 -2.63217,2.641 0,1.45387 1.17883,2.63236 2.63269,2.63217 1.45375,0 2.63218,-1.17842 2.63218,-2.63217 0.006,-1.76063 -1.31353,-2.641 -2.6327,-2.641 z m 14.85429,6.84107 c 1.40522,0 2.81084,0.93353 2.83134,2.80022 0,1.56359 -1.26776,2.83082 -2.83134,2.83082 -1.56353,0 -2.83101,-1.26727 -2.83082,-2.83082 0.0205,-1.86669 1.42561,-2.80022 2.83082,-2.80022 z M 175.18581,608.558 c -1.8916,0 -3.4252,1.51124 -3.4252,3.3754 0,1.86416 1.5336,3.37541 3.4252,3.37541 1.89172,0 3.4252,-1.51125 3.4252,-3.37541 0,-1.86416 -1.53348,-3.3754 -3.4252,-3.3754 z m 4.96457,0.2059 v 6.33953 h 1.2816 v -4.22705 l 3.37437,4.22705 h 1.12289 v -6.33953 h -1.34591 v 4.08908 l -3.15602,-4.08908 z m 7.62216,0 v 6.33953 h 4.83594 v -1.23648 h -3.47395 v -5.10305 h -5.2e-4 z m 6.15696,0 v 6.33953 h 1.36147 v -6.33953 z m 3.20477,0 v 6.33953 h 1.28211 v -4.22705 l 3.37437,4.22705 h 1.12289 v -6.33953 h -1.34643 v 4.08856 l -3.15549,-4.08856 z m 7.63097,0 v 6.33953 h 5.23479 v -1.23648 h -3.87332 v -1.43201 h 3.68557 v -1.17371 h -3.68557 v -1.26137 h 3.87332 v -1.23596 z m -29.57943,1.08451 c 1.11288,0 2.01498,0.93333 2.01498,2.08499 0,1.15167 -0.9021,2.08552 -2.01498,2.08552 -1.11276,0 -2.01498,-0.93385 -2.01498,-2.08552 0,-1.15166 0.90222,-2.08499 2.01498,-2.08499 z" />
    </g>
  </g>
  <g
     id="g4-7-3-5-4"
     transform="matrix(2,0,0,2,-3806.377,-4644)"
     inkscape:label="regular">
    <rect
       style="display:inline;fill:#e70101;fill-opacity:1;stroke-width:2;stroke-dashoffset:9.6;paint-order:markers stroke fill"
       id="rect1565-2-1-5-2-2-2-7-1-8-5-1"
       width="256"
       height="256"
       x="3183.1885"
       y="2322" />
    <g
       id="rect2247-4-9-3-5-1-05-2-0"
       transform="translate(-1024)">
      <path
         id="path1-5-6-90-4"
         style="color:#000000;fill:#ffffff;stroke-dashoffset:9.6;-inkscape-stroke:none;paint-order:markers stroke fill"
         d="m 4284.1875,2384 c -11.4264,0 -21,9.5736 -21,21 v 90 c 0,11.4264 9.5736,21 21,21 h 102 c 11.4264,0 21,-9.5736 21,-21 v -90 c 0,-11.4264 -9.5736,-21 -21,-21 z m 0,12 h 102 c 4.9858,0 9,4.014 9,9 v 90 c 0,4.986 -4.0142,9 -9,9 h -102 c -4.986,0 -9,-4.014 -9,-9 v -90 c 0,-4.986 4.014,-9 9,-9 z m 28.9121,20.5625 c -4.2168,0 -7.6133,3.3945 -7.6133,7.6113 v 12.4356 c 0,4.2168 3.3965,7.6113 7.6133,7.6113 4.2167,0 7.6113,-3.3945 7.6113,-7.6113 v -12.4356 c 0,-4.2168 -3.3946,-7.6113 -7.6113,-7.6113 z m 42,0 c -4.2168,0 -7.6133,3.3945 -7.6133,7.6113 v 12.4356 c 0,4.2168 3.3965,7.6113 7.6133,7.6113 4.2167,0 7.6113,-3.3945 7.6113,-7.6113 v -12.4356 c 0,-4.2168 -3.3946,-7.6113 -7.6113,-7.6113 z m -42.4063,49.6133 -11.7871,2.2578 c 1.4006,7.3122 6.673,12.6738 12.7715,15.8086 6.0984,3.1348 13.2332,4.481 20.3418,4.4512 7.1086,-0.03 14.2133,-1.436 20.2637,-4.584 6.0504,-3.1481 11.28,-8.4778 12.5996,-15.7324 l -11.8047,-2.1465 c -0.5274,2.8991 -2.4978,5.2393 -6.3321,7.2343 -3.8341,1.9951 -9.2989,3.2055 -14.7773,3.2286 -5.4784,0.023 -10.9492,-1.1412 -14.8047,-3.1231 -3.8555,-1.9818 -5.8858,-4.3412 -6.4707,-7.3945 z" />
    </g>
  </g>
  <g
     id="g4-0-9-6-2-87"
     transform="matrix(2,0,0,2,-7390.377,-4644)"
     inkscape:label="regular_blurple">
    <rect
       style="display:inline;fill:#4752c4;fill-opacity:1;stroke-width:2;stroke-dashoffset:9.6;paint-order:markers stroke fill"
       id="rect1565-2-1-5-2-2-2-7-7-7-4-8-0"
       width="256"
       height="256"
       x="4207.1885"
       y="2322" />
    <g
       id="rect2247-4-9-3-5-8-7-0-3-8">
      <path
         id="path1-6-6-0-8-62"
         style="color:#000000;fill:#ffffff;stroke-dashoffset:9.6;-inkscape-stroke:none;paint-order:markers stroke fill"
         d="m 4284.1875,2384 c -11.4264,0 -21,9.5736 -21,21 v 90 c 0,11.4264 9.5736,21 21,21 h 102 c 11.4264,0 21,-9.5736 21,-21 v -90 c 0,-11.4264 -9.5736,-21 -21,-21 z m 0,12 h 102 c 4.9858,0 9,4.014 9,9 v 90 c 0,4.986 -4.0142,9 -9,9 h -102 c -4.986,0 -9,-4.014 -9,-9 v -90 c 0,-4.986 4.014,-9 9,-9 z m 28.9121,20.5625 c -4.2168,0 -7.6133,3.3945 -7.6133,7.6113 v 12.4356 c 0,4.2168 3.3965,7.6113 7.6133,7.6113 4.2167,0 7.6113,-3.3945 7.6113,-7.6113 v -12.4356 c 0,-4.2168 -3.3946,-7.6113 -7.6113,-7.6113 z m 42,0 c -4.2168,0 -7.6133,3.3945 -7.6133,7.6113 v 12.4356 c 0,4.2168 3.3965,7.6113 7.6133,7.6113 4.2167,0 7.6113,-3.3945 7.6113,-7.6113 v -12.4356 c 0,-4.2168 -3.3946,-7.6113 -7.6113,-7.6113 z m -42.4063,49.6133 -11.7871,2.2578 c 1.4006,7.3122 6.673,12.6738 12.7715,15.8086 6.0984,3.1348 13.2332,4.481 20.3418,4.4512 7.1086,-0.03 14.2133,-1.436 20.2637,-4.584 6.0504,-3.1481 11.28,-8.4778 12.5996,-15.7324 l -11.8047,-2.1465 c -0.5274,2.8991 -2.4978,5.2393 -6.3321,7.2343 -3.8341,1.9951 -9.2989,3.2055 -14.7773,3.2286 -5.4784,0.023 -10.9492,-1.1412 -14.8047,-3.1231 -3.8555,-1.9818 -5.8858,-4.3412 -6.4707,-7.3945 z" />
    </g>
  </g>
  <g
     id="g4-0-5-7-4-0-4"
     transform="matrix(2,0,0,2,-6878.377,-4644)"
     inkscape:label="regular_dark">
    <rect
       style="display:inline;fill:#202225;fill-opacity:1;stroke-width:2;stroke-dashoffset:9.6;paint-order:markers stroke fill"
       id="rect1565-2-1-5-2-2-2-7-7-0-3-6-4-79"
       width="256"
       height="256"
       x="4207.1885"
       y="2322" />
    <g
       id="rect2247-4-9-3-5-8-4-6-2-09-3">
      <path
         id="path1-6-8-5-6-1-9"
         style="color:#000000;fill:#ffffff;stroke-dashoffset:9.6;-inkscape-stroke:none;paint-order:markers stroke fill"
         d="m 4284.1875,2384 c -11.4264,0 -21,9.5736 -21,21 v 90 c 0,11.4264 9.5736,21 21,21 h 102 c 11.4264,0 21,-9.5736 21,-21 v -90 c 0,-11.4264 -9.5736,-21 -21,-21 z m 0,12 h 102 c 4.9858,0 9,4.014 9,9 v 90 c 0,4.986 -4.0142,9 -9,9 h -102 c -4.986,0 -9,-4.014 -9,-9 v -90 c 0,-4.986 4.014,-9 9,-9 z m 28.9121,20.5625 c -4.2168,0 -7.6133,3.3945 -7.6133,7.6113 v 12.4356 c 0,4.2168 3.3965,7.6113 7.6133,7.6113 4.2167,0 7.6113,-3.3945 7.6113,-7.6113 v -12.4356 c 0,-4.2168 -3.3946,-7.6113 -7.6113,-7.6113 z m 42,0 c -4.2168,0 -7.6133,3.3945 -7.6133,7.6113 v 12.4356 c 0,4.2168 3.3965,7.6113 7.6133,7.6113 4.2167,0 7.6113,-3.3945 7.6113,-7.6113 v -12.4356 c 0,-4.2168 -3.3946,-7.6113 -7.6113,-7.6113 z m -42.4063,49.6133 -11.7871,2.2578 c 1.4006,7.3122 6.673,12.6738 12.7715,15.8086 6.0984,3.1348 13.2332,4.481 20.3418,4.4512 7.1086,-0.03 14.2133,-1.436 20.2637,-4.584 6.0504,-3.1481 11.28,-8.4778 12.5996,-15.7324 l -11.8047,-2.1465 c -0.5274,2.8991 -2.4978,5.2393 -6.3321,7.2343 -3.8341,1.9951 -9.2989,3.2055 -14.7773,3.2286 -5.4784,0.023 -10.9492,-1.1412 -14.8047,-3.1231 -3.8555,-1.9818 -5.8858,-4.3412 -6.4707,-7.3945 z" />
    </g>
  </g>
  <g
     id="g4-0-5-7-6-7-9-2"
     transform="matrix(2,0,0,2,-6366.377,-4644)"
     inkscape:label="regular_light">
    <rect
       style="display:inline;fill:#ffffff;fill-opacity:1;stroke-width:2;stroke-dashoffset:9.6;paint-order:markers stroke fill"
       id="rect1565-2-1-5-2-2-2-7-7-0-3-3-5-6-8"
       width="256"
       height="256"
       x="4207.1885"
       y="2322" />
    <g
       id="rect2247-4-9-3-5-8-4-6-8-6-2-30">
      <path
         id="path1-6-8-5-5-9-5-1"
         style="color:#000000;fill:#202225;fill-opacity:1;stroke-dashoffset:9.6;-inkscape-stroke:none;paint-order:markers stroke fill"
         d="m 4284.1875,2384 c -11.4264,0 -21,9.5736 -21,21 v 90 c 0,11.4264 9.5736,21 21,21 h 102 c 11.4264,0 21,-9.5736 21,-21 v -90 c 0,-11.4264 -9.5736,-21 -21,-21 z m 0,12 h 102 c 4.9858,0 9,4.014 9,9 v 90 c 0,4.986 -4.0142,9 -9,9 h -102 c -4.986,0 -9,-4.014 -9,-9 v -90 c 0,-4.986 4.014,-9 9,-9 z m 28.9121,20.5625 c -4.2168,0 -7.6133,3.3945 -7.6133,7.6113 v 12.4356 c 0,4.2168 3.3965,7.6113 7.6133,7.6113 4.2167,0 7.6113,-3.3945 7.6113,-7.6113 v -12.4356 c 0,-4.2168 -3.3946,-7.6113 -7.6113,-7.6113 z m 42,0 c -4.2168,0 -7.6133,3.3945 -7.6133,7.6113 v 12.4356 c 0,4.2168 3.3965,7.6113 7.6133,7.6113 4.2167,0 7.6113,-3.3945 7.6113,-7.6113 v -12.4356 c 0,-4.2168 -3.3946,-7.6113 -7.6113,-7.6113 z m -42.4063,49.6133 -11.7871,2.2578 c 1.4006,7.3122 6.673,12.6738 12.7715,15.8086 6.0984,3.1348 13.2332,4.481 20.3418,4.4512 7.1086,-0.03 14.2133,-1.436 20.2637,-4.584 6.0504,-3.1481 11.28,-8.4778 12.5996,-15.7324 l -11.8047,-2.1465 c -0.5274,2.8991 -2.4978,5.2393 -6.3321,7.2343 -3.8341,1.9951 -9.2989,3.2055 -14.7773,3.2286 -5.4784,0.023 -10.9492,-1.1412 -14.8047,-3.1231 -3.8555,-1.9818 -5.8858,-4.3412 -6.4707,-7.3945 z" />
    </g>
  </g>
  <g
     id="g5-8-7-0-6-6"
     transform="matrix(2,0,0,2,-5147.403,-4794.79)"
     inkscape:label="nso_light">
    <rect
       style="display:inline;fill:#ffffff;fill-opacity:1;stroke-width:2;stroke-dashoffset:9.6;paint-order:markers stroke fill"
       id="rect1565-2-1-5-26-0-8-1-9-3-11"
       width="256"
       height="256"
       x="3597.7012"
       y="2909.395" />
    <g
       id="g2179-1-6-4-7-1-9-5"
       transform="matrix(3.7657474,0,0,3.7657474,3006.8941,794.31064)">
      <path
         id="path2207-7-8-3-3-2-7-4-98"
         clip-path="url(#b)"
         style="fill:#202225;fill-opacity:1;stroke-width:0.342874"
         d="m 184.05948,575.99992 c -3.96495,0 -7.17922,3.21428 -7.17922,7.17923 v 13.64116 c 0,3.96529 3.21427,7.17974 7.17922,7.17974 h 6.12014 c 0.11356,0 0.20585,-0.0923 0.2059,-0.2059 v -27.58884 c 0,-0.11353 -0.0924,-0.20574 -0.2059,-0.20539 z m 9.30935,0 c -0.10072,0 -0.18217,0.0818 -0.18205,0.18257 v 27.61217 c 0,0.11326 0.0913,0.20591 0.20487,0.20591 h 4.30951 c 3.96495,0 7.17922,-3.21445 7.17922,-7.17975 v -13.64167 c 0,-3.96495 -3.21427,-7.17923 -7.17922,-7.17923 h -5.2e-4 z m -9.30935,2.25771 h 4.06834 v 23.48575 h -4.06834 c -1.31488,0 -2.55064,-0.51183 -3.48017,-1.44134 -0.92631,-0.92118 -1.44535,-2.17484 -1.44135,-3.48122 v -13.64115 c 0,-1.31524 0.51129,-2.55134 1.44083,-3.48018 0.9211,-0.92627 2.17442,-1.44486 3.48069,-1.44186 z m -0.18775,3.50144 c -1.31917,0 -2.63837,0.88037 -2.63217,2.641 0,1.45387 1.17883,2.63236 2.63269,2.63217 1.45375,0 2.63218,-1.17842 2.63218,-2.63217 0.006,-1.76063 -1.31353,-2.641 -2.6327,-2.641 z m 14.85429,6.84107 c 1.40522,0 2.81084,0.93353 2.83134,2.80022 0,1.56359 -1.26776,2.83082 -2.83134,2.83082 -1.56353,0 -2.83101,-1.26727 -2.83082,-2.83082 0.0205,-1.86669 1.42561,-2.80022 2.83082,-2.80022 z M 175.18581,608.558 c -1.8916,0 -3.4252,1.51124 -3.4252,3.3754 0,1.86416 1.5336,3.37541 3.4252,3.37541 1.89172,0 3.4252,-1.51125 3.4252,-3.37541 0,-1.86416 -1.53348,-3.3754 -3.4252,-3.3754 z m 4.96457,0.2059 v 6.33953 h 1.2816 v -4.22705 l 3.37437,4.22705 h 1.12289 v -6.33953 h -1.34591 v 4.08908 l -3.15602,-4.08908 z m 7.62216,0 v 6.33953 h 4.83594 v -1.23648 h -3.47395 v -5.10305 h -5.2e-4 z m 6.15696,0 v 6.33953 h 1.36147 v -6.33953 z m 3.20477,0 v 6.33953 h 1.28211 v -4.22705 l 3.37437,4.22705 h 1.12289 v -6.33953 h -1.34643 v 4.08856 l -3.15549,-4.08856 z m 7.63097,0 v 6.33953 h 5.23479 v -1.23648 h -3.87332 v -1.43201 h 3.68557 v -1.17371 h -3.68557 v -1.26137 h 3.87332 v -1.23596 z m -29.57943,1.08451 c 1.11288,0 2.01498,0.93333 2.01498,2.08499 0,1.15167 -0.9021,2.08552 -2.01498,2.08552 -1.11276,0 -2.01498,-0.93385 -2.01498,-2.08552 0,-1.15166 0.90222,-2.08499 2.01498,-2.08499 z" />
    </g>
  </g>
  <g
     id="g5-8-7-0-6-8"
     transform="matrix(2,0,0,2,-6171.403,-4794.79)"
     inkscape:label="nso_blurple">
    <rect
       style="display:inline;fill:#4752c4;fill-opacity:1;stroke-width:2;stroke-dashoffset:9.6;paint-order:markers stroke fill"
       id="rect1565-2-1-5-26-0-8-1-9-3-1"
       width="256"
       height="256"
       x="3597.7012"
       y="2909.395" />
    <g
       id="g2179-1-6-4-7-1-9-2"
       transform="matrix(3.7657474,0,0,3.7657474,3006.8941,794.31064)">
      <path
         id="path2207-7-8-3-3-2-7-4-9"
         clip-path="url(#b)"
         style="fill:#ffffff;stroke-width:0.342874"
         d="m 184.05948,575.99992 c -3.96495,0 -7.17922,3.21428 -7.17922,7.17923 v 13.64116 c 0,3.96529 3.21427,7.17974 7.17922,7.17974 h 6.12014 c 0.11356,0 0.20585,-0.0923 0.2059,-0.2059 v -27.58884 c 0,-0.11353 -0.0924,-0.20574 -0.2059,-0.20539 z m 9.30935,0 c -0.10072,0 -0.18217,0.0818 -0.18205,0.18257 v 27.61217 c 0,0.11326 0.0913,0.20591 0.20487,0.20591 h 4.30951 c 3.96495,0 7.17922,-3.21445 7.17922,-7.17975 v -13.64167 c 0,-3.96495 -3.21427,-7.17923 -7.17922,-7.17923 h -5.2e-4 z m -9.30935,2.25771 h 4.06834 v 23.48575 h -4.06834 c -1.31488,0 -2.55064,-0.51183 -3.48017,-1.44134 -0.92631,-0.92118 -1.44535,-2.17484 -1.44135,-3.48122 v -13.64115 c 0,-1.31524 0.51129,-2.55134 1.44083,-3.48018 0.9211,-0.92627 2.17442,-1.44486 3.48069,-1.44186 z m -0.18775,3.50144 c -1.31917,0 -2.63837,0.88037 -2.63217,2.641 0,1.45387 1.17883,2.63236 2.63269,2.63217 1.45375,0 2.63218,-1.17842 2.63218,-2.63217 0.006,-1.76063 -1.31353,-2.641 -2.6327,-2.641 z m 14.85429,6.84107 c 1.40522,0 2.81084,0.93353 2.83134,2.80022 0,1.56359 -1.26776,2.83082 -2.83134,2.83082 -1.56353,0 -2.83101,-1.26727 -2.83082,-2.83082 0.0205,-1.86669 1.42561,-2.80022 2.83082,-2.80022 z M 175.18581,608.558 c -1.8916,0 -3.4252,1.51124 -3.4252,3.3754 0,1.86416 1.5336,3.37541 3.4252,3.37541 1.89172,0 3.4252,-1.51125 3.4252,-3.37541 0,-1.86416 -1.53348,-3.3754 -3.4252,-3.3754 z m 4.96457,0.2059 v 6.33953 h 1.2816 v -4.22705 l 3.37437,4.22705 h 1.12289 v -6.33953 h -1.34591 v 4.08908 l -3.15602,-4.08908 z m 7.62216,0 v 6.33953 h 4.83594 v -1.23648 h -3.47395 v -5.10305 h -5.2e-4 z m 6.15696,0 v 6.33953 h 1.36147 v -6.33953 z m 3.20477,0 v 6.33953 h 1.28211 v -4.22705 l 3.37437,4.22705 h 1.12289 v -6.33953 h -1.34643 v 4.08856 l -3.15549,-4.08856 z m 7.63097,0 v 6.33953 h 5.23479 v -1.23648 h -3.87332 v -1.43201 h 3.68557 v -1.17371 h -3.68557 v -1.26137 h 3.87332 v -1.23596 z m -29.57943,1.08451 c 1.11288,0 2.01498,0.93333 2.01498,2.08499 0,1.15167 -0.9021,2.08552 -2.01498,2.08552 -1.11276,0 -2.01498,-0.93385 -2.01498,-2.08552 0,-1.15166 0.90222,-2.08499 2.01498,-2.08499 z" />
    </g>
  </g>
  <g
     id="g5-8-7-0-6-8-3"
     transform="matrix(2,0,0,2,-4635.403,-4794.79)"
     inkscape:label="nso">
    <rect
       style="display:inline;fill:#e70101;fill-opacity:1;stroke-width:2;stroke-dashoffset:9.6;paint-order:markers stroke fill"
       id="rect1565-2-1-5-26-0-8-1-9-3-1-9"
       width="256"
       height="256"
       x="3597.7012"
       y="2909.395" />
    <g
       id="g2179-1-6-4-7-1-9-2-0"
       transform="matrix(3.7657474,0,0,3.7657474,3006.8941,794.31064)">
      <path
         id="path2207-7-8-3-3-2-7-4-9-8"
         clip-path="url(#b)"
         style="fill:#ffffff;stroke-width:0.342874"
         d="m 184.05948,575.99992 c -3.96495,0 -7.17922,3.21428 -7.17922,7.17923 v 13.64116 c 0,3.96529 3.21427,7.17974 7.17922,7.17974 h 6.12014 c 0.11356,0 0.20585,-0.0923 0.2059,-0.2059 v -27.58884 c 0,-0.11353 -0.0924,-0.20574 -0.2059,-0.20539 z m 9.30935,0 c -0.10072,0 -0.18217,0.0818 -0.18205,0.18257 v 27.61217 c 0,0.11326 0.0913,0.20591 0.20487,0.20591 h 4.30951 c 3.96495,0 7.17922,-3.21445 7.17922,-7.17975 v -13.64167 c 0,-3.96495 -3.21427,-7.17923 -7.17922,-7.17923 h -5.2e-4 z m -9.30935,2.25771 h 4.06834 v 23.48575 h -4.06834 c -1.31488,0 -2.55064,-0.51183 -3.48017,-1.44134 -0.92631,-0.92118 -1.44535,-2.17484 -1.44135,-3.48122 v -13.64115 c 0,-1.31524 0.51129,-2.55134 1.44083,-3.48018 0.9211,-0.92627 2.17442,-1.44486 3.48069,-1.44186 z m -0.18775,3.50144 c -1.31917,0 -2.63837,0.88037 -2.63217,2.641 0,1.45387 1.17883,2.63236 2.63269,2.63217 1.45375,0 2.63218,-1.17842 2.63218,-2.63217 0.006,-1.76063 -1.31353,-2.641 -2.6327,-2.641 z m 14.85429,6.84107 c 1.40522,0 2.81084,0.93353 2.83134,2.80022 0,1.56359 -1.26776,2.83082 -2.83134,2.83082 -1.56353,0 -2.83101,-1.26727 -2.83082,-2.83082 0.0205,-1.86669 1.42561,-2.80022 2.83082,-2.80022 z M 175.18581,608.558 c -1.8916,0 -3.4252,1.51124 -3.4252,3.3754 0,1.86416 1.5336,3.37541 3.4252,3.37541 1.89172,0 3.4252,-1.51125 3.4252,-3.37541 0,-1.86416 -1.53348,-3.3754 -3.4252,-3.3754 z m 4.96457,0.2059 v 6.33953 h 1.2816 v -4.22705 l 3.37437,4.22705 h 1.12289 v -6.33953 h -1.34591 v 4.08908 l -3.15602,-4.08908 z m 7.62216,0 v 6.33953 h 4.83594 v -1.23648 h -3.47395 v -5.10305 h -5.2e-4 z m 6.15696,0 v 6.33953 h 1.36147 v -6.33953 z m 3.20477,0 v 6.33953 h 1.28211 v -4.22705 l 3.37437,4.22705 h 1.12289 v -6.33953 h -1.34643 v 4.08856 l -3.15549,-4.08856 z m 7.63097,0 v 6.33953 h 5.23479 v -1.23648 h -3.87332 v -1.43201 h 3.68557 v -1.17371 h -3.68557 v -1.26137 h 3.87332 v -1.23596 z m -29.57943,1.08451 c 1.11288,0 2.01498,0.93333 2.01498,2.08499 0,1.15167 -0.9021,2.08552 -2.01498,2.08552 -1.11276,0 -2.01498,-0.93385 -2.01498,-2.08552 0,-1.15166 0.90222,-2.08499 2.01498,-2.08499 z" />
    </g>
  </g>
  <g
     id="g69-2-3"
     transform="matrix(2,0,0,2,-13395.759,-1902.9292)"
     inkscape:label="fc_dark">
    <rect
       style="display:inline;fill:#202225;fill-opacity:1;stroke-width:2;stroke-dashoffset:9.6;paint-order:markers stroke fill"
       id="rect1565-2-1-5-2-2-2-7-1-5-8-8-2"
       width="256"
       height="256"
       x="7465.8794"
       y="1207.4646" />
    <path
       id="rect5-8-6"
       style="fill:#ffffff;fill-opacity:1;stroke:none;stroke-width:2.36774;stroke-miterlimit:4.9;stroke-opacity:1;paint-order:markers fill stroke"
       d="m 7506.0028,1295.2258 v 80.4776 h 176.6391 v -80.4776 z m 139.5989,10.8212 c 3.0521,0.092 6.065,0.9547 8.6911,2.5268 4.9396,2.7907 8.1872,8.5325 7.5861,14.2346 -0.2874,3.5829 -2.2259,6.9047 -5.0119,9.1335 3.493,2.1787 6.237,5.7116 7.3712,9.7107 1.9712,7.0328 -1.0317,14.9865 -6.8269,19.3192 -4.9913,3.7744 -11.7468,4.7461 -17.7445,3.2424 -4.66,-1.1618 -8.7418,-4.3673 -10.9814,-8.6147 -1.6787,-2.9815 -2.3889,-6.3634 -3.0002,-9.6942 h 8.6675 c 0.7487,2.7555 1.5334,5.7071 3.6392,7.7681 2.6007,2.4418 6.451,2.9009 9.8399,2.312 4.0736,-0.6325 7.6181,-4.046 8.1777,-8.1632 0.6266,-3.8963 -1.7359,-7.9478 -5.3122,-9.5231 -3.1579,-1.332 -6.6566,-1.3695 -10.0238,-1.6184 v -7.0763 c 0.086,-0.4651 -0.2942,-1.3867 0.4934,-1.167 2.6959,0.016 5.4837,-0.2132 7.9101,-1.4928 2.0696,-0.946 3.7606,-2.9445 3.8249,-5.2886 0.203,-2.7499 -1.8174,-5.2013 -4.2399,-6.2534 -2.5103,-1.0086 -5.5799,-0.9953 -7.8992,0.5024 -2.485,1.6381 -3.5446,4.573 -4.5859,7.2184 h -8.4764 c -0.7151,0.1331 -0.016,-0.8465 -0.053,-1.2471 0.7852,-3.7501 2.2023,-7.476 4.817,-10.3442 2.9768,-3.3469 7.3513,-5.3659 11.8279,-5.4779 0.4366,-0.019 0.8729,-0.02 1.309,-0.01 z m -53.1918,0.01 c 1.471,0.032 2.9397,0.202 4.3692,0.5516 4.1419,0.9426 7.759,3.6261 10.1258,7.12 3.6045,5.1176 3.8769,12.1278 1.3143,17.7501 -1.6496,3.5492 -4.2342,6.5515 -6.7541,9.5067 -4.2062,4.7167 -8.57,9.2895 -12.8437,13.9451 h 22.0045 v 8.6383 h -41.5951 c 5.7337,-6.1906 11.4657,-12.3832 17.1984,-18.5746 3.8888,-4.2856 7.9968,-8.3864 11.5913,-12.9293 1.7151,-2.1375 3.1813,-4.6287 3.377,-7.4223 0.2874,-2.5668 -0.6117,-5.2288 -2.4705,-7.0363 -1.8733,-2.0377 -4.6551,-3.1191 -7.4094,-2.9856 -3.195,-0.023 -6.345,1.6218 -8.0704,4.3255 -1.6712,2.4958 -2.0215,5.5562 -2.2282,8.4781 h -8.5347 c 0.061,-1.0726 0.086,-2.1477 0.1712,-3.2186 0.3329,-4.8521 2.3996,-9.6148 5.9713,-12.9566 3.2636,-3.2019 7.7533,-5.0395 12.3121,-5.1812 0.4894,-0.018 0.9806,-0.022 1.471,-0.011 z m -63.2848,1.3126 h 13.1169 v 56.1956 h -8.7822 c 1e-4,-15.8293 0,-31.6588 0,-47.4881 h -9.6578 c 1.6004,-2.6193 3.2019,-5.2383 4.8025,-7.8574 0.1736,-0.2835 0.3471,-0.5666 0.5206,-0.8501 z" />
  </g>
  <g
     id="g69-9-8-5"
     transform="matrix(2,0,0,2,-12883.759,-1902.9292)"
     inkscape:label="fc_light">
    <rect
       style="display:inline;fill:#ffffff;fill-opacity:1;stroke-width:2;stroke-dashoffset:9.6;paint-order:markers stroke fill"
       id="rect1565-2-1-5-2-2-2-7-1-5-8-6-6-2"
       width="256"
       height="256"
       x="7465.8794"
       y="1207.4646" />
    <path
       id="rect5-1-8-6"
       style="fill:#202225;fill-opacity:1;stroke:none;stroke-width:2.36774;stroke-miterlimit:4.9;stroke-opacity:1;paint-order:markers fill stroke"
       d="m 7506.0028,1295.2258 v 80.4776 h 176.6391 v -80.4776 z m 139.5989,10.8212 c 3.0521,0.092 6.065,0.9547 8.6911,2.5268 4.9396,2.7907 8.1872,8.5325 7.5861,14.2346 -0.2874,3.5829 -2.2259,6.9047 -5.0119,9.1335 3.493,2.1787 6.237,5.7116 7.3712,9.7107 1.9712,7.0328 -1.0317,14.9865 -6.8269,19.3192 -4.9913,3.7744 -11.7468,4.7461 -17.7445,3.2424 -4.66,-1.1618 -8.7418,-4.3673 -10.9814,-8.6147 -1.6787,-2.9815 -2.3889,-6.3634 -3.0002,-9.6942 h 8.6675 c 0.7487,2.7555 1.5334,5.7071 3.6392,7.7681 2.6007,2.4418 6.451,2.9009 9.8399,2.312 4.0736,-0.6325 7.6181,-4.046 8.1777,-8.1632 0.6266,-3.8963 -1.7359,-7.9478 -5.3122,-9.5231 -3.1579,-1.332 -6.6566,-1.3695 -10.0238,-1.6184 v -7.0763 c 0.086,-0.4651 -0.2942,-1.3867 0.4934,-1.167 2.6959,0.016 5.4837,-0.2132 7.9101,-1.4928 2.0696,-0.946 3.7606,-2.9445 3.8249,-5.2886 0.203,-2.7499 -1.8174,-5.2013 -4.2399,-6.2534 -2.5103,-1.0086 -5.5799,-0.9953 -7.8992,0.5024 -2.485,1.6381 -3.5446,4.573 -4.5859,7.2184 h -8.4764 c -0.7151,0.1331 -0.016,-0.8465 -0.053,-1.2471 0.7852,-3.7501 2.2023,-7.476 4.817,-10.3442 2.9768,-3.3469 7.3513,-5.3659 11.8279,-5.4779 0.4366,-0.019 0.8729,-0.02 1.309,-0.01 z m -53.1918,0.01 c 1.471,0.032 2.9397,0.202 4.3692,0.5516 4.1419,0.9426 7.759,3.6261 10.1258,7.12 3.6045,5.1176 3.8769,12.1278 1.3143,17.7501 -1.6496,3.5492 -4.2342,6.5515 -6.7541,9.5067 -4.2062,4.7167 -8.57,9.2895 -12.8437,13.9451 h 22.0045 v 8.6383 h -41.5951 c 5.7337,-6.1906 11.4657,-12.3832 17.1984,-18.5746 3.8888,-4.2856 7.9968,-8.3864 11.5913,-12.9293 1.7151,-2.1375 3.1813,-4.6287 3.377,-7.4223 0.2874,-2.5668 -0.6117,-5.2288 -2.4705,-7.0363 -1.8733,-2.0377 -4.6551,-3.1191 -7.4094,-2.9856 -3.195,-0.023 -6.345,1.6218 -8.0704,4.3255 -1.6712,2.4958 -2.0215,5.5562 -2.2282,8.4781 h -8.5347 c 0.061,-1.0726 0.086,-2.1477 0.1712,-3.2186 0.3329,-4.8521 2.3996,-9.6148 5.9713,-12.9566 3.2636,-3.2019 7.7533,-5.0395 12.3121,-5.1812 0.4894,-0.018 0.9806,-0.022 1.471,-0.011 z m -63.2848,1.3126 h 13.1169 v 56.1956 h -8.7822 c 1e-4,-15.8293 0,-31.6588 0,-47.4881 h -9.6578 c 1.6004,-2.6193 3.2019,-5.2383 4.8025,-7.8574 0.1736,-0.2835 0.3471,-0.5666 0.5206,-0.8501 z" />
  </g>
  <g
     id="g69-9-0-3-5-5"
     transform="matrix(2,0,0,2,-13907.759,-5826.3154)"
     inkscape:label="fc_blurple">
    <rect
       style="display:inline;fill:#4752c4;fill-opacity:1;stroke-width:2;stroke-dashoffset:9.6;paint-order:markers stroke fill"
       id="rect1565-2-1-5-2-2-2-7-1-5-8-6-4-8-8-9-3"
       width="256"
       height="256"
       x="7465.8794"
       y="3169.1577" />
    <path
       id="rect5-1-2-3-7-2-4"
       style="fill:#ffffff;fill-opacity:1;stroke:none;stroke-width:2.36774;stroke-miterlimit:4.9;stroke-opacity:1;paint-order:markers fill stroke"
       d="m 7506.0028,3256.9189 v 80.4776 h 176.6391 v -80.4776 z m 139.5989,10.8212 c 3.0521,0.092 6.065,0.9547 8.6911,2.5268 4.9396,2.7907 8.1872,8.5325 7.5861,14.2346 -0.2874,3.5829 -2.2259,6.9047 -5.0119,9.1335 3.493,2.1787 6.237,5.7116 7.3712,9.7107 1.9712,7.0328 -1.0317,14.9865 -6.8269,19.3192 -4.9913,3.7744 -11.7468,4.7461 -17.7445,3.2424 -4.66,-1.1618 -8.7418,-4.3673 -10.9814,-8.6147 -1.6787,-2.9815 -2.3889,-6.3634 -3.0002,-9.6942 h 8.6675 c 0.7487,2.7555 1.5334,5.7071 3.6392,7.7681 2.6007,2.4418 6.451,2.9009 9.8399,2.312 4.0736,-0.6325 7.6181,-4.046 8.1777,-8.1632 0.6266,-3.8963 -1.7359,-7.9478 -5.3122,-9.5231 -3.1579,-1.332 -6.6566,-1.3695 -10.0238,-1.6184 v -7.0763 c 0.086,-0.4651 -0.2942,-1.3867 0.4934,-1.167 2.6959,0.016 5.4837,-0.2132 7.9101,-1.4928 2.0696,-0.946 3.7606,-2.9445 3.8249,-5.2886 0.203,-2.7499 -1.8174,-5.2013 -4.2399,-6.2534 -2.5103,-1.0086 -5.5799,-0.9953 -7.8992,0.5024 -2.485,1.6381 -3.5446,4.573 -4.5859,7.2184 h -8.4764 c -0.7151,0.1331 -0.016,-0.8465 -0.053,-1.2471 0.7852,-3.7501 2.2023,-7.476 4.817,-10.3442 2.9768,-3.3469 7.3513,-5.3659 11.8279,-5.4779 0.4366,-0.019 0.8729,-0.02 1.309,-0.01 z m -53.1918,0.01 c 1.471,0.032 2.9397,0.202 4.3692,0.5516 4.1419,0.9426 7.759,3.6261 10.1258,7.12 3.6045,5.1176 3.8769,12.1278 1.3143,17.7501 -1.6496,3.5492 -4.2342,6.5515 -6.7541,9.5067 -4.2062,4.7167 -8.57,9.2895 -12.8437,13.9451 h 22.0045 v 8.6383 h -41.5951 c 5.7337,-6.1906 11.4657,-12.3832 17.1984,-18.5746 3.8888,-4.2856 7.9968,-8.3864 11.5913,-12.9293 1.7151,-2.1375 3.1813,-4.6287 3.377,-7.4223 0.2874,-2.5668 -0.6117,-5.2288 -2.4705,-7.0363 -1.8733,-2.0377 -4.6551,-3.1191 -7.4094,-2.9856 -3.195,-0.023 -6.345,1.6218 -8.0704,4.3255 -1.6712,2.4958 -2.0215,5.5562 -2.2282,8.4781 h -8.5347 c 0.061,-1.0726 0.086,-2.1477 0.1712,-3.2186 0.3329,-4.8521 2.3996,-9.6148 5.9713,-12.9566 3.2636,-3.2019 7.7533,-5.0395 12.3121,-5.1812 0.4894,-0.018 0.9806,-0.022 1.471,-0.011 z m -63.2848,1.3126 h 13.1169 v 56.1956 h -8.7822 c 1e-4,-15.8293 0,-31.6588 0,-47.4881 h -9.6578 c 1.6004,-2.6193 3.2019,-5.2383 4.8025,-7.8574 0.1736,-0.2835 0.3471,-0.5666 0.5206,-0.8501 z" />
  </g>
  <g
     id="g69-9-2-3-9"
     transform="matrix(2,0,0,2,-12371.759,-1902.9292)"
     inkscape:label="fc">
    <rect
       style="display:inline;fill:#e70101;fill-opacity:1;stroke-width:2;stroke-dashoffset:9.6;paint-order:markers stroke fill"
       id="rect1565-2-1-5-2-2-2-7-1-5-8-6-2-3-6"
       width="256"
       height="256"
       x="7465.8794"
       y="1207.4646" />
    <path
       id="rect5-1-0-8-0"
       style="fill:#ffffff;fill-opacity:1;stroke:none;stroke-width:2.36774;stroke-miterlimit:4.9;stroke-opacity:1;paint-order:markers fill stroke"
       d="m 7506.0028,1295.2258 v 80.4776 h 176.6391 v -80.4776 z m 139.5989,10.8212 c 3.0521,0.092 6.065,0.9547 8.6911,2.5268 4.9396,2.7907 8.1872,8.5325 7.5861,14.2346 -0.2874,3.5829 -2.2259,6.9047 -5.0119,9.1335 3.493,2.1787 6.237,5.7116 7.3712,9.7107 1.9712,7.0328 -1.0317,14.9865 -6.8269,19.3192 -4.9913,3.7744 -11.7468,4.7461 -17.7445,3.2424 -4.66,-1.1618 -8.7418,-4.3673 -10.9814,-8.6147 -1.6787,-2.9815 -2.3889,-6.3634 -3.0002,-9.6942 h 8.6675 c 0.7487,2.7555 1.5334,5.7071 3.6392,7.7681 2.6007,2.4418 6.451,2.9009 9.8399,2.312 4.0736,-0.6325 7.6181,-4.046 8.1777,-8.1632 0.6266,-3.8963 -1.7359,-7.9478 -5.3122,-9.5231 -3.1579,-1.332 -6.6566,-1.3695 -10.0238,-1.6184 v -7.0763 c 0.086,-0.4651 -0.2942,-1.3867 0.4934,-1.167 2.6959,0.016 5.4837,-0.2132 7.9101,-1.4928 2.0696,-0.946 3.7606,-2.9445 3.8249,-5.2886 0.203,-2.7499 -1.8174,-5.2013 -4.2399,-6.2534 -2.5103,-1.0086 -5.5799,-0.9953 -7.8992,0.5024 -2.485,1.6381 -3.5446,4.573 -4.5859,7.2184 h -8.4764 c -0.7151,0.1331 -0.016,-0.8465 -0.053,-1.2471 0.7852,-3.7501 2.2023,-7.476 4.817,-10.3442 2.9768,-3.3469 7.3513,-5.3659 11.8279,-5.4779 0.4366,-0.019 0.8729,-0.02 1.309,-0.01 z m -53.1918,0.01 c 1.471,0.032 2.9397,0.202 4.3692,0.5516 4.1419,0.9426 7.759,3.6261 10.1258,7.12 3.6045,5.1176 3.8769,12.1278 1.3143,17.7501 -1.6496,3.5492 -4.2342,6.5515 -6.7541,9.5067 -4.2062,4.7167 -8.57,9.2895 -12.8437,13.9451 h 22.0045 v 8.6383 h -41.5951 c 5.7337,-6.1906 11.4657,-12.3832 17.1984,-18.5746 3.8888,-4.2856 7.9968,-8.3864 11.5913,-12.9293 1.7151,-2.1375 3.1813,-4.6287 3.377,-7.4223 0.2874,-2.5668 -0.6117,-5.2288 -2.4705,-7.0363 -1.8733,-2.0377 -4.6551,-3.1191 -7.4094,-2.9856 -3.195,-0.023 -6.345,1.6218 -8.0704,4.3255 -1.6712,2.4958 -2.0215,5.5562 -2.2282,8.4781 h -8.5347 c 0.061,-1.0726 0.086,-2.1477 0.1712,-3.2186 0.3329,-4.8521 2.3996,-9.6148 5.9713,-12.9566 3.2636,-3.2019 7.7533,-5.0395 12.3121,-5.1812 0.4894,-0.018 0.9806,-0.022 1.471,-0.011 z m -63.2848,1.3126 h 13.1169 v 56.1956 h -8.7822 c 1e-4,-15.8293 0,-31.6588 0,-47.4881 h -9.6578 c 1.6004,-2.6193 3.2019,-5.2383 4.8025,-7.8574 0.1736,-0.2835 0.3471,-0.5666 0.5206,-0.8501 z" />
  </g>
  <metadata
     id="metadata1">
    <rdf:RDF>
      <cc:Work
         rdf:about="">
        <dc:title>© 2024 NinStar</dc:title>
      </cc:Work>
    </rdf:RDF>
  </metadata>
</svg>
